19:03:04.112 [main] INFO  org.cc86.MMC.client.Main.serverDiscovery(Main.java:158) - Request packet sent to: 255.255.255.255 (DEFAULT)
19:03:04.154 [main] INFO  org.cc86.MMC.client.Main.serverDiscovery(Main.java:191) - Request packet sent to: 192.168.10.255; Interface: Realtek PCIe GBE Family Controller
19:03:04.158 [main] INFO  org.cc86.MMC.client.Main.serverDiscovery(Main.java:191) - Request packet sent to: 169.254.255.255; Interface: TAP-Windows Adapter V9
19:03:04.170 [main] INFO  org.cc86.MMC.client.Main.serverDiscovery(Main.java:195) - Done looping over all network interfaces. Now waiting for a reply!
19:03:04.171 [main] INFO  org.cc86.MMC.client.Main.serverDiscovery(Main.java:203) - Broadcast response from server: 192.168.10.41
19:03:04.172 [main] INFO  org.cc86.MMC.client.Main.main(Main.java:41) - 192.168.10.41
19:03:04.326 [AWT-EventQueue-0] ERROR org.cc86.MMC.client.Menu.bootUI(Menu.java:117) - Ach LEgg mi doch am arsch
19:03:04.422 [AWT-EventQueue-0] INFO  org.cc86.MMC.client.Mod_Stream.loadUI(Mod_Stream.java:47) - figgdi
19:03:07.715 [[External.FFMPEG]] INFO  - ffmpeg version N-69672-g078be09 Copyright (c) 2000-2015 the FFmpeg developers
19:03:07.717 [[External.FFMPEG]] INFO  -   built with gcc 4.9.2 (GCC)
19:03:07.719 [[External.FFMPEG]] INFO  -   configuration: --enable-gpl --enable-version3 --disable-w32threads --enable-avisynth --enable-bzlib --enable-fontconfig --enable-frei0r --enable-gnutls --enable-iconv --enable-libass --enable-libbluray --enable-libbs2b --enable-libcaca --enable-libfreetype --enable-libgme --enable-libgsm --enable-libilbc --enable-libmodplug --enable-libmp3lame --enable-libopencore-amrnb --enable-libopencore-amrwb --enable-libopenjpeg --enable-libopus --enable-librtmp --enable-libschroedinger --enable-libsoxr --enable-libspeex --enable-libtheora --enable-libtwolame --enable-libvidstab --enable-libvo-aacenc --enable-libvo-amrwbenc --enable-libvorbis --enable-libvpx --enable-libwavpack --enable-libwebp --enable-libx264 --enable-libx265 --enable-libxavs --enable-libxvid --enable-lzma --enable-decklink --enable-zlib
19:03:07.720 [[External.FFMPEG]] INFO  -   libavutil      54. 18.100 / 54. 18.100
19:03:07.720 [[External.FFMPEG]] INFO  -   libavcodec     56. 21.102 / 56. 21.102
19:03:07.721 [[External.FFMPEG]] INFO  -   libavformat    56. 19.100 / 56. 19.100
19:03:07.721 [[External.FFMPEG]] INFO  -   libavdevice    56.  4.100 / 56.  4.100
19:03:07.721 [[External.FFMPEG]] INFO  -   libavfilter     5.  9.104 /  5.  9.104
19:03:07.722 [[External.FFMPEG]] INFO  -   libswscale      3.  1.101 /  3.  1.101
19:03:07.722 [[External.FFMPEG]] INFO  -   libswresample   1.  1.100 /  1.  1.100
19:03:07.722 [[External.FFMPEG]] INFO  -   libpostproc    53.  3.100 / 53.  3.100
19:03:07.826 [[External.FFMPEG]] INFO  - Input #0, dshow, from 'video=screen-capture-recorder':
19:03:07.827 [[External.FFMPEG]] INFO  -   Duration: N/A, start: 10612.644000, bitrate: N/A
19:03:07.827 [[External.FFMPEG]] INFO  -     Stream #0:0: Video: rawvideo, bgr0, 1920x1200, 24 tbr, 10000k tbn, 24 tbc
19:03:07.834 [[External.FFMPEG]] INFO  - Output #0, mpegts, to 'udp://192.168.10.41:52380?pkt_size=400?buffer_size=65535':
19:03:07.835 [[External.FFMPEG]] INFO  -   Metadata:
19:03:07.836 [[External.FFMPEG]] INFO  -     encoder         : Lavf56.19.100
19:03:07.837 [[External.FFMPEG]] INFO  -     Stream #0:0: Video: mpeg4, yuv420p, 1920x1200, q=2-31, 200 kb/s, 24 fps, 90k tbn, 24 tbc
19:03:07.838 [[External.FFMPEG]] INFO  -     Metadata:
19:03:07.839 [[External.FFMPEG]] INFO  -       encoder         : Lavc56.21.102 mpeg4
19:03:07.840 [[External.FFMPEG]] INFO  - Stream mapping:
19:03:07.841 [[External.FFMPEG]] INFO  -   Stream #0:0 -> #0:0 (rawvideo (native) -> mpeg4 (native))
19:03:07.842 [[External.FFMPEG]] INFO  - Press [q] to stop, [?] for help
19:03:08.350 [[External.FFMPEG]] INFO  - frame=   13 fps=0.0 q=20.0 size=    1388kB time=00:00:00.54 bitrate=20996.8kbits/s dup=2 drop=0    
19:03:08.852 [[External.FFMPEG]] INFO  - frame=   25 fps= 25 q=20.0 size=    2653kB time=00:00:01.04 bitrate=20860.6kbits/s dup=4 drop=0    
19:03:09.357 [[External.FFMPEG]] INFO  - frame=   37 fps= 24 q=20.0 size=    3923kB time=00:00:01.54 bitrate=20847.9kbits/s dup=6 drop=0    
19:03:09.861 [[External.FFMPEG]] INFO  - frame=   49 fps= 24 q=20.0 size=    5203kB time=00:00:02.04 bitrate=20877.5kbits/s dup=8 drop=0    
19:03:10.370 [[External.FFMPEG]] INFO  - frame=   61 fps= 24 q=20.0 size=    6486kB time=00:00:02.54 bitrate=20905.5kbits/s dup=10 drop=0    
19:03:10.877 [[External.FFMPEG]] INFO  - frame=   73 fps= 24 q=20.0 size=    7777kB time=00:00:03.04 bitrate=20946.6kbits/s dup=12 drop=0    
19:03:11.399 [InputCruncher] INFO  org.cc86.MMC.client.Mod_Stream.receiveMsgFromServer(Mod_Stream.java:38) - disconnect
